<svg width="21" height="21" viewBox="0 0 21 21" fill="none" xmlns="http://www.w3.org/2000/svg">
<path d="M17.9375 6.37V4.375C17.9375 3.4125 17.15 2.625 16.1875 2.625H3.9375C2.96625 2.625 2.1875 3.4125 2.1875 4.375V16.625C2.1875 17.5875 2.96625 18.375 3.9375 18.375H16.1875C17.15 18.375 17.9375 17.5875 17.9375 16.625V14.63C18.4538 14.3237 18.8125 13.7725 18.8125 13.125V7.875C18.8125 7.2275 18.4538 6.67625 17.9375 6.37ZM17.0625 7.875V13.125H10.9375V7.875H17.0625ZM3.9375 16.625V4.375H16.1875V6.125H10.9375C9.975 6.125 9.1875 6.9125 9.1875 7.875V13.125C9.1875 14.0875 9.975 14.875 10.9375 14.875H16.1875V16.625H3.9375Z" fill="#8C8888"/>
<path d="M13.5625 11.8125C14.2874 11.8125 14.875 11.2249 14.875 10.5C14.875 9.77513 14.2874 9.1875 13.5625 9.1875C12.8376 9.1875 12.25 9.77513 12.25 10.5C12.25 11.2249 12.8376 11.8125 13.5625 11.8125Z" fill="#8C8888"/>
</svg>
