<svg width="832" height="1033" viewBox="0 0 832 1033" fill="none" xmlns="http://www.w3.org/2000/svg">
<rect y="913.63" width="17.851" height="17.851" rx="8.9255" transform="rotate(-25.3033 0 913.63)" fill="#808DA2" fill-opacity="0.94"/>
<rect x="678.736" y="61.4268" width="50.5091" height="49.7663" rx="14" transform="rotate(-104.606 678.736 61.4268)" fill="#40A099" fill-opacity="0.22"/>
<rect x="8" y="456.63" width="17.851" height="17.851" rx="5" transform="rotate(-25.3033 8 456.63)" fill="#808DA2" fill-opacity="0.94"/>
<rect x="795.023" y="761.246" width="27.3986" height="27.3986" rx="11" transform="rotate(-25.3033 795.023 761.246)" fill="#40A099" fill-opacity="0.32"/>
<rect x="655" y="931.71" width="27.3986" height="27.3986" rx="11" transform="rotate(-25.3033 655 931.71)" fill="#40A099" fill-opacity="0.32"/>
<rect x="1" y="69.0312" width="68" height="67" rx="18" transform="rotate(-76.2053 1 69.0312)" fill="#40A099" fill-opacity="0.32"/>
<rect x="69.2051" y="88.7148" width="35.9451" height="35.4165" rx="14" transform="rotate(-104.606 69.2051 88.7148)" fill="#40A099" fill-opacity="0.62"/>
<rect x="700.064" y="451.715" width="35.9451" height="35.4165" rx="14" transform="rotate(-104.606 700.064 451.715)" fill="#273D62" fill-opacity="0.59"/>
</svg>
