<svg width="23" height="23" viewBox="0 0 23 23" fill="none" xmlns="http://www.w3.org/2000/svg">
<path d="M8.62533 10.5417C9.38349 10.5417 10.1246 10.3168 10.755 9.89564C11.3854 9.47442 11.8767 8.87574 12.1669 8.17529C12.457 7.47484 12.5329 6.70408 12.385 5.96049C12.2371 5.21689 11.872 4.53386 11.3359 3.99776C10.7998 3.46166 10.1168 3.09657 9.37317 2.94866C8.62958 2.80075 7.85882 2.87666 7.15837 3.1668C6.45792 3.45693 5.85924 3.94826 5.43803 4.57865C5.01681 5.20904 4.79199 5.95017 4.79199 6.70834C4.79199 7.725 5.19586 8.70002 5.91475 9.41891C6.63364 10.1378 7.60866 10.5417 8.62533 10.5417Z" fill="#8C8888"/>
<path d="M16.292 12.459C16.8606 12.459 17.4165 12.2904 17.8893 11.9745C18.362 11.6586 18.7305 11.2095 18.9481 10.6842C19.1657 10.1589 19.2227 9.5808 19.1117 9.0231C19.0008 8.46541 18.727 7.95313 18.3249 7.55105C17.9228 7.14898 17.4106 6.87516 16.8529 6.76423C16.2952 6.6533 15.7171 6.71023 15.1918 6.92783C14.6664 7.14543 14.2174 7.51393 13.9015 7.98672C13.5856 8.45951 13.417 9.01536 13.417 9.58399C13.417 10.3465 13.7199 11.0778 14.2591 11.6169C14.7982 12.1561 15.5295 12.459 16.292 12.459Z" fill="#8C8888"/>
<path d="M20.1253 19.167C20.3795 19.167 20.6232 19.0661 20.803 18.8863C20.9827 18.7066 21.0837 18.4629 21.0837 18.2087C21.0829 17.313 20.8311 16.4355 20.3569 15.6757C19.8826 14.9159 19.2049 14.3042 18.4007 13.9101C17.5964 13.5159 16.6977 13.3551 15.8067 13.4458C14.9156 13.5365 14.0678 13.8751 13.3595 14.4233C12.4208 13.4883 11.2263 12.8522 9.92657 12.5952C8.62685 12.3382 7.28013 12.4718 6.05625 12.9792C4.83237 13.4866 3.78614 14.345 3.04949 15.4462C2.31285 16.5475 1.91878 17.8421 1.91699 19.167C1.91699 19.4212 2.01796 19.665 2.19768 19.8447C2.3774 20.0244 2.62116 20.1254 2.87533 20.1254H14.3753C14.6295 20.1254 14.8732 20.0244 15.053 19.8447C15.2327 19.665 15.3337 19.4212 15.3337 19.167" fill="#8C8888"/>
</svg>
