<svg width="197" height="197" viewBox="0 0 197 197" fill="none" xmlns="http://www.w3.org/2000/svg">
<g clip-path="url(#clip0_101_17277)">
<path d="M98.5 197C152.9 197 197 152.9 197 98.5C197 44.1 152.9 0 98.5 0C44.1 0 0 44.1 0 98.5C0 152.9 44.1 197 98.5 197Z" fill="#C63C22"/>
<path d="M45.4297 122.007L118.41 194.987C159.937 186.463 191.929 151.804 196.449 108.953L151.413 63.917L45.4297 122.007Z" fill="#A53D04"/>
<path d="M98.5007 43.7778C62.2341 43.7778 32.834 65.8279 32.834 93.0278C32.834 118.351 58.318 139.207 91.1002 141.965L87.5562 164.167L98.5007 154.54V43.7778Z" fill="#FFCD02"/>
<path d="M98.5 43.7778V154.54L114.017 140.891C142.794 135.661 164.167 116.218 164.167 93.0278C164.167 65.8279 134.767 43.7778 98.5 43.7778Z" fill="#FFCD02"/>
<path d="M98.5 43.7778V154.54L114.017 140.891C142.794 135.661 164.167 116.218 164.167 93.0278C164.167 65.8279 134.767 43.7778 98.5 43.7778Z" fill="#D6AD00"/>
<path d="M131.332 103.143C136.094 103.143 139.955 99.2826 139.955 94.5204C139.955 89.7581 136.094 85.8975 131.332 85.8975C126.57 85.8975 122.709 89.7581 122.709 94.5204C122.709 99.2826 126.57 103.143 131.332 103.143Z" fill="#CC3B3B"/>
<path d="M98.4998 103.143C103.262 103.143 107.123 99.2826 107.123 94.5204C107.123 89.7581 103.262 85.8975 98.4998 85.8975C93.7376 85.8975 89.877 89.7581 89.877 94.5204C89.877 99.2826 93.7376 103.143 98.4998 103.143Z" fill="#E95755"/>
<path d="M107.123 94.5204C107.123 89.7579 103.262 85.8975 98.5 85.8975V103.143C103.262 103.143 107.123 99.2828 107.123 94.5204Z" fill="#CC3B3B"/>
<path d="M65.6659 103.143C70.4282 103.143 74.2888 99.2826 74.2888 94.5204C74.2888 89.7581 70.4282 85.8975 65.6659 85.8975C60.9036 85.8975 57.043 89.7581 57.043 94.5204C57.043 99.2826 60.9036 103.143 65.6659 103.143Z" fill="#E95755"/>
</g>
<defs>
<clipPath id="clip0_101_17277">
<rect width="197" height="197" fill="white"/>
</clipPath>
</defs>
</svg>
