<svg width="190" height="190" viewBox="0 0 190 190" fill="none" xmlns="http://www.w3.org/2000/svg">
<path d="M154.375 11.875H100.938C100.938 15.154 98.279 17.8125 95 17.8125C91.721 17.8125 89.0625 15.154 89.0625 11.875H35.625C27.4405 11.875 20.7812 18.5343 20.7812 26.7188V175.156C20.7812 183.341 27.4405 190 35.625 190H154.375C162.559 190 169.219 183.341 169.219 175.156V26.7188C169.219 18.5343 162.559 11.875 154.375 11.875ZM154.375 172.188C154.375 173.827 153.046 175.156 151.406 175.156H38.5938C36.9543 175.156 35.625 173.827 35.625 172.188V29.6875C35.625 28.048 36.9543 26.7188 38.5938 26.7188H151.406C153.046 26.7188 154.375 28.048 154.375 29.6875V172.188Z" fill="#9F6459"/>
<path d="M56.4059 136.563C55.7041 136.563 54.9998 136.316 54.4346 135.812C53.2082 134.725 53.0979 132.846 54.1882 131.623L77.9382 104.904C78.8021 103.93 80.1997 103.634 81.3853 104.173L111.238 117.744L130.848 70.1193C131.474 68.606 133.208 67.8928 134.724 68.5043C136.24 69.1278 136.962 70.8641 136.339 72.3804L115.558 122.849C115.251 123.594 114.653 124.183 113.905 124.479C113.158 124.774 112.32 124.754 111.583 124.421L80.9214 110.484L58.6239 135.565C58.0379 136.226 57.2234 136.563 56.4059 136.563Z" fill="#D8DCE1"/>
<path d="M56.4062 142.5C61.325 142.5 65.3125 138.513 65.3125 133.594C65.3125 128.675 61.325 124.688 56.4062 124.688C51.4875 124.688 47.5 128.675 47.5 133.594C47.5 138.513 51.4875 142.5 56.4062 142.5Z" fill="#FF4F19"/>
<path d="M80.1562 115.781C85.075 115.781 89.0625 111.794 89.0625 106.875C89.0625 101.956 85.075 97.9688 80.1562 97.9688C75.2375 97.9688 71.25 101.956 71.25 106.875C71.25 111.794 75.2375 115.781 80.1562 115.781Z" fill="#FF9600"/>
<path d="M112.812 130.625C117.731 130.625 121.719 126.638 121.719 121.719C121.719 116.8 117.731 112.812 112.812 112.812C107.894 112.812 103.906 116.8 103.906 121.719C103.906 126.638 107.894 130.625 112.812 130.625Z" fill="#FFD200"/>
<path d="M133.594 80.1562C138.513 80.1562 142.5 76.1688 142.5 71.25C142.5 66.3312 138.513 62.3438 133.594 62.3438C128.675 62.3438 124.688 66.3312 124.688 71.25C124.688 76.1688 128.675 80.1562 133.594 80.1562Z" fill="#74D24F"/>
<path d="M112.812 5.9375H105.246C103.153 2.31637 99.2616 0 95 0C90.7384 0 86.8474 2.31637 84.7545 5.9375H77.1875C69.003 5.9375 62.3438 12.5968 62.3438 20.7812V32.6562C62.3438 34.2957 63.6715 35.625 65.3125 35.625H124.688C126.328 35.625 127.656 34.2957 127.656 32.6562V20.7812C127.656 12.5968 120.997 5.9375 112.812 5.9375ZM95 14.8438C93.3605 14.8438 92.0312 13.5145 92.0312 11.875C92.0312 10.2355 93.3605 8.90625 95 8.90625C96.6395 8.90625 97.9688 10.2355 97.9688 11.875C97.9688 13.5145 96.6395 14.8438 95 14.8438Z" fill="#B9BBC1"/>
</svg>
