<svg width="199" height="199" viewBox="0 0 199 199" fill="none" xmlns="http://www.w3.org/2000/svg">
<g clip-path="url(#clip0_101_17296)">
<path d="M99.5 199C154.452 199 199 154.452 199 99.5C199 44.5477 154.452 0 99.5 0C44.5477 0 0 44.5477 0 99.5C0 154.452 44.5477 199 99.5 199Z" fill="#263A7A"/>
<path d="M153.939 57.8843L45.9727 130.539L113.408 198.028C160.685 191.414 197.309 151.585 198.936 102.882L153.939 57.8843Z" fill="#121149"/>
<path d="M51.1069 55.2778H147.894C152.506 55.2778 156.246 59.0172 156.246 63.6296V123.951C156.246 128.563 152.506 132.302 147.894 132.302H140.033V150.612C140.033 154.19 135.707 155.981 133.178 153.451L112.029 132.302H51.1076C46.4953 132.302 42.7559 128.563 42.7559 123.951V63.63C42.7551 59.0172 46.4945 55.2778 51.1069 55.2778Z" fill="#FFEDB5"/>
<path d="M156.246 63.6301C156.246 59.0177 152.506 55.2783 147.894 55.2783H99.2773V132.303H112.029L133.178 153.452C135.708 155.982 140.033 154.191 140.033 150.613V132.303H147.894C152.506 132.303 156.245 128.564 156.245 123.952V63.6301H156.246Z" fill="#FEE187"/>
<path d="M133.177 153.452C135.707 155.982 140.032 154.191 140.032 150.613V132.303H147.893C152.049 132.303 155.486 129.265 156.128 125.29L99.4998 88.4448L42.8711 125.29C43.5132 129.265 46.9502 132.303 51.1059 132.303H112.027L133.177 153.452Z" fill="#FEE187"/>
<path d="M99.5004 88.4448L99.2773 88.5902V132.303H112.029L133.178 153.452C135.708 155.982 140.033 154.191 140.033 150.613V132.303H147.894C152.049 132.303 155.486 129.265 156.128 125.29L99.5004 88.4448Z" fill="#FFC91B"/>
<path d="M45.4316 57.5131L99.4994 99.5001L153.566 57.5131C152.076 56.1302 150.086 55.2778 147.893 55.2778H51.1055C48.9126 55.2778 46.9226 56.1302 45.4316 57.5131Z" fill="#FFC61B"/>
<path d="M153.567 57.5131C152.077 56.1302 150.087 55.2778 147.894 55.2778H99.2773V99.3264L99.5004 99.5001L153.567 57.5131Z" fill="#D48B07"/>
</g>
<defs>
<clipPath id="clip0_101_17296">
<rect width="199" height="199" fill="white"/>
</clipPath>
</defs>
</svg>
