<svg width="21" height="18" viewBox="0 0 21 18" fill="none" xmlns="http://www.w3.org/2000/svg">
<path d="M10.5 0L0 4.84615L2.8 6.09231V8.44615C1.96 8.72308 1.4 9.55385 1.4 10.3846C1.4 11.2154 1.96 12.0462 2.8 12.3231V12.4615L1.54 15.3692C1.12 16.6154 1.4 18 3.5 18C5.6 18 5.88 16.6154 5.46 15.3692L4.2 12.4615C5.04 12.0462 5.6 11.3538 5.6 10.3846C5.6 9.41539 5.04 8.72308 4.2 8.44615V6.78462L10.5 9.69231L21 4.84615L10.5 0ZM16.66 9L10.36 11.7692L7 10.2462V10.3846C7 11.3538 6.58 12.1846 5.88 12.8769L6.72 14.8154V14.9538C6.86 15.5077 7 16.0615 6.86 16.6154C7.84 17.0308 8.96 17.3077 10.36 17.3077C14.98 17.3077 16.66 14.5385 16.66 13.1538V9Z" fill="#0C4CA3"/>
</svg>
