<svg width="42" height="41" viewBox="0 0 42 41" fill="none" xmlns="http://www.w3.org/2000/svg">
<path fill-rule="evenodd" clip-rule="evenodd" d="M20.8359 41C9.5141 41 0.335938 31.8218 0.335938 20.5C0.335938 9.17816 9.5141 0 20.8359 0C32.1578 0 41.3359 9.17816 41.3359 20.5C41.3359 31.8218 32.1578 41 20.8359 41ZM20.8389 37.2735C30.1022 37.2735 37.6116 29.7641 37.6116 20.5007C37.6116 11.2374 30.1022 3.728 20.8389 3.728C11.5755 3.728 4.06612 11.2374 4.06612 20.5007C4.06612 29.7641 11.5755 37.2735 20.8389 37.2735ZM26.9701 13.5907L17.1061 23.4547L12.8329 19.1816L10.1974 21.8172L17.1061 28.7259L29.6057 16.2263L26.9701 13.5907Z" fill="#34BCAD"/>
</svg>
