<svg width="23" height="23" viewBox="0 0 23 23" fill="none" xmlns="http://www.w3.org/2000/svg">
<path d="M8.6263 10.5417C9.38446 10.5417 10.1256 10.3168 10.756 9.89564C11.3864 9.47442 11.8777 8.87574 12.1678 8.17529C12.458 7.47484 12.5339 6.70408 12.386 5.96049C12.2381 5.21689 11.873 4.53386 11.3369 3.99776C10.8008 3.46166 10.1177 3.09657 9.37415 2.94866C8.63055 2.80075 7.8598 2.87666 7.15935 3.1668C6.4589 3.45693 5.86021 3.94826 5.439 4.57865C5.01779 5.20904 4.79297 5.95017 4.79297 6.70834C4.79297 7.725 5.19684 8.70002 5.91573 9.41891C6.63462 10.1378 7.60964 10.5417 8.6263 10.5417Z" fill="#0C4CA3"/>
<path d="M16.293 12.4585C16.8616 12.4585 17.4174 12.2899 17.8902 11.974C18.363 11.6581 18.7315 11.209 18.9491 10.6837C19.1667 10.1584 19.2237 9.58031 19.1127 9.02261C19.0018 8.46492 18.728 7.95264 18.3259 7.55057C17.9238 7.14849 17.4115 6.87467 16.8539 6.76374C16.2962 6.65281 15.7181 6.70974 15.1928 6.92734C14.6674 7.14495 14.2184 7.51344 13.9025 7.98623C13.5866 8.45902 13.418 9.01488 13.418 9.5835C13.418 10.346 13.7209 11.0773 14.26 11.6164C14.7992 12.1556 15.5305 12.4585 16.293 12.4585Z" fill="#0C4CA3"/>
<path d="M20.1263 19.1675C20.3805 19.1675 20.6242 19.0666 20.8039 18.8868C20.9837 18.7071 21.0846 18.4634 21.0846 18.2092C21.0839 17.3135 20.8321 16.436 20.3578 15.6762C19.8836 14.9164 19.2059 14.3047 18.4016 13.9106C17.5974 13.5164 16.6987 13.3556 15.8077 13.4463C14.9166 13.537 14.0688 13.8756 13.3605 14.4238C12.4218 13.4888 11.2273 12.8527 9.92755 12.5957C8.62783 12.3387 7.28111 12.4723 6.05723 12.9797C4.83335 13.4871 3.78711 14.3455 3.05047 15.4467C2.31383 16.5479 1.91976 17.8426 1.91797 19.1675C1.91797 19.4217 2.01894 19.6654 2.19866 19.8452C2.37838 20.0249 2.62214 20.1259 2.8763 20.1259H14.3763C14.6305 20.1259 14.8742 20.0249 15.0539 19.8452C15.2337 19.6654 15.3346 19.4217 15.3346 19.1675" fill="#0C4CA3"/>
</svg>
