<svg width="16" height="23" viewBox="0 0 16 23" fill="none" xmlns="http://www.w3.org/2000/svg">
<path d="M7.99921 9.52186C10.6244 9.52186 12.7601 7.38612 12.7601 4.76093C12.7602 2.13574 10.6244 0 7.99921 0C5.37402 0 3.23828 2.13574 3.23828 4.76093C3.23828 7.3862 5.37402 9.52186 7.99921 9.52186ZM7.99921 1.13679C9.99763 1.13679 11.6233 2.76258 11.6233 4.76093C11.6233 6.75927 9.99755 8.38507 7.99921 8.38507C6.00086 8.38507 4.37507 6.75927 4.37507 4.76093C4.37507 2.76258 6.00086 1.13679 7.99921 1.13679Z" fill="#8C8888"/>
<path d="M15.9517 20.4036L14.3904 13.9271C14.2051 13.1584 13.5235 12.6215 12.7326 12.6215C11.741 12.6215 4.15368 12.6215 3.26728 12.6215C2.47656 12.6215 1.79486 13.1584 1.60952 13.9271L0.0482608 20.4036C-0.210161 21.4758 0.601798 22.5084 1.70602 22.5084H14.294C15.3969 22.5084 16.2105 21.4774 15.9517 20.4036ZM1.70602 21.3716C1.3385 21.3716 1.06724 21.0279 1.15346 20.6701L2.71472 14.1934C2.77648 13.9372 3.00368 13.7583 3.26736 13.7583H5.85511L5.13829 18.829C5.11706 18.9791 5.1566 19.1313 5.24815 19.252L6.85556 21.3716H1.70602ZM6.29714 18.7538L7.0033 13.7584H8.99677L9.70293 18.7538L8 20.9994L6.29714 18.7538ZM14.294 21.3716H9.14444L10.7518 19.252C10.8433 19.1313 10.8829 18.9791 10.8616 18.8291L10.1448 13.7584H12.7326C12.9962 13.7584 13.2234 13.9373 13.2852 14.1936L14.8465 20.6701C14.9327 21.0276 14.662 21.3716 14.294 21.3716Z" fill="#8C8888"/>
</svg>
