<svg width="102" height="102" viewBox="0 0 102 102" fill="none" xmlns="http://www.w3.org/2000/svg">
<rect x="0.5" y="0.5" width="101" height="101" rx="32.5" stroke="#B5FCA4"/>
<rect x="9" y="9" width="84" height="84" rx="23" fill="#B5FCA4"/>
<path d="M60.1357 45.5895C62.4491 45.5895 64.3312 43.7073 64.3312 41.3938C64.3312 39.0804 62.4492 37.1982 60.1357 37.1982C57.8229 37.1982 55.9414 39.0803 55.9414 41.3938C55.9414 43.7073 57.823 45.5895 60.1357 45.5895Z" fill="white"/>
<path d="M69.2822 53.1825L67.8413 51.2178C67.5124 50.7694 66.9653 50.0555 66.6215 49.6264L64.4952 46.97C64.1869 46.5847 63.8671 46.3104 63.2534 46.3104C63.2462 46.3104 58.2272 46.3039 58.2272 46.3039L54.9638 44.0859C54.6009 43.8392 54.0016 43.3585 53.6814 43.0572L53.3072 42.705H53.9817C54.1005 42.705 54.2061 42.6558 54.2713 42.5699C54.3366 42.4841 54.3557 42.3692 54.324 42.2547L53.8803 40.6584C53.8206 40.4435 53.599 40.2752 53.376 40.2752H52.2333L51.9481 38.5464L53.4517 37.5439C53.8127 37.3033 54.1213 36.8744 54.2923 36.421C55.5196 36.312 56.4853 35.2788 56.4853 34.0236C56.4853 32.3261 56.0157 31.6178 54.8692 31.5952L55.1477 30.5069C55.1805 30.3789 55.156 30.2497 55.0807 30.1527C55.0053 30.0557 54.8863 30 54.7541 30H46.9363C46.8042 30 46.6851 30.0557 46.6098 30.1527C46.5344 30.2497 46.51 30.3789 46.5428 30.507L46.8215 31.5952C45.6704 31.6154 45.1992 32.3231 45.1992 34.0238C45.1992 35.2791 46.165 36.3124 47.3924 36.4212C47.5633 36.8745 47.8721 37.3035 48.2329 37.544L49.7422 38.5502L49.4577 40.2752H48.4773C48.2542 40.2752 48.0328 40.4435 47.9731 40.6584L47.5294 42.2548C47.4977 42.3692 47.5169 42.4841 47.5821 42.57C47.6473 42.6558 47.7529 42.705 47.8717 42.705H48.3773L48.0032 43.0572C47.6831 43.3583 47.0839 43.839 46.7209 44.0859L43.4573 46.3039C43.4573 46.3039 38.5243 46.3073 38.5182 46.3073C37.8857 46.3073 37.4699 46.55 37.1312 46.9732L35.0048 49.6295C34.6609 50.0591 34.1136 50.773 33.785 51.2211L32.3441 53.1858C32.0636 53.5683 31.9489 54.0371 32.021 54.5058C32.0932 54.9746 32.3434 55.3872 32.7258 55.6676C33.0326 55.8925 33.3952 56.0114 33.7745 56.0114C34.3386 56.0114 34.8743 55.7401 35.2075 55.2858L36.499 53.5247L36.2159 56.6885L33.7238 68.5243C33.6208 69.0135 33.7144 69.5137 33.9876 69.9324C34.2607 70.3513 34.6807 70.6387 35.1697 70.7416C35.2972 70.7686 35.4276 70.7822 35.5573 70.7822C36.4364 70.7822 37.206 70.157 37.3873 69.2956L39.7196 58.2192H40.327L40.6601 61.9579C40.7001 62.4069 40.7202 63.1961 40.7032 63.6469L40.5069 68.8392C40.4881 69.3388 40.6648 69.8159 41.0048 70.1826C41.3448 70.5493 41.8072 70.7616 42.3071 70.7805C42.331 70.7814 42.3549 70.782 42.3786 70.782C43.3888 70.782 44.2099 69.9907 44.2481 68.9807L44.4444 63.7887C44.4674 63.1815 44.4432 62.2314 44.3892 61.6257L43.891 56.0353C43.8897 56.02 43.8866 56.0054 43.8849 55.9902L44.4266 49.9384L48.7171 47.0226C49.2295 46.6743 49.985 46.0684 50.437 45.6431L50.8424 45.2614L51.2477 45.6429C51.6993 46.068 52.4548 46.6741 52.9678 47.0227L56.9483 49.728L57.5088 55.9902C57.5071 56.0053 57.5039 56.02 57.5026 56.0353L57.0045 61.6255C56.9506 62.2303 56.9257 63.1794 56.948 63.7862L57.1455 69.1964C57.1823 70.2078 58.0036 71 59.015 71C59.0381 71 59.0614 70.9996 59.0843 70.9987C59.5841 70.9805 60.0467 70.7688 60.3872 70.4026C60.7276 70.0364 60.905 69.5595 60.8867 69.0599L60.6891 63.6496C60.6727 63.1979 60.6934 62.4075 60.7335 61.9579L61.0666 58.2192H61.6741L62.5617 62.4341C62.6748 62.9711 62.871 63.8398 62.9992 64.3707L64.2011 69.3492C64.4048 70.1929 65.1525 70.7822 66.0194 70.7822C66.1674 70.7822 66.3157 70.7645 66.46 70.7295C67.4633 70.4874 68.0825 69.474 67.8403 68.4706L66.6385 63.4921C66.517 62.9887 66.3316 62.1681 66.2251 61.6626L65.1774 56.6876L64.8618 53.1606C64.9032 53.2161 64.9422 53.2689 64.978 53.3176L66.4188 55.2824C66.7521 55.7366 67.2878 56.0079 67.8518 56.0079C68.2312 56.0079 68.5937 55.889 68.9004 55.6641C69.2829 55.3837 69.5332 54.9711 69.6053 54.5024C69.6774 54.0337 69.5627 53.5649 69.2822 53.1825ZM54.5504 32.5894C54.5629 32.5754 54.5748 32.5608 54.5859 32.5455C54.6651 32.5423 54.7414 32.5396 54.8122 32.5396C55.2188 32.5396 55.54 32.5396 55.54 34.0237C55.54 34.6646 55.1254 35.2105 54.5504 35.4074V32.5894ZM47.1342 35.4075C46.5591 35.2105 46.1446 34.6647 46.1446 34.0238C46.1446 32.5397 46.4657 32.5397 46.8722 32.5397C46.9449 32.5397 47.0234 32.5425 47.1051 32.5459C47.1141 32.5583 47.124 32.5701 47.1341 32.5817V35.4075H47.1342ZM49.6938 35.5558C49.6589 35.5077 49.6259 35.4243 49.6665 35.2994L49.9648 34.3815C49.9631 34.3858 49.961 34.3788 49.9591 34.3762L49.1839 33.814C49.0239 33.6977 49.0537 33.5591 49.0666 33.5193C49.0795 33.4796 49.137 33.3499 49.3347 33.3499H50.2999C50.2954 33.3496 50.3013 33.3453 50.3033 33.3426L50.5984 32.4319C50.6597 32.2439 50.8007 32.2292 50.8425 32.2292C50.8843 32.2292 51.0254 32.2439 51.0865 32.4317L51.3848 33.3497C51.3836 33.3453 51.3895 33.3495 51.3927 33.3507L52.3501 33.3499C52.5478 33.3499 52.6053 33.4796 52.6183 33.5193C52.6312 33.559 52.6609 33.6977 52.5011 33.814L51.7203 34.3814C51.7235 34.3785 51.7216 34.3858 51.7217 34.3891L52.0183 35.2996C52.0588 35.4243 52.0258 35.5078 51.9909 35.5559C51.947 35.6164 51.8783 35.6512 51.8024 35.6512C51.7428 35.6512 51.6825 35.6294 51.6234 35.5865L50.8426 35.0191L50.0615 35.5865C49.9271 35.6839 49.7722 35.6639 49.6938 35.5558Z" fill="white"/>
<path d="M41.258 45.5895C43.5707 45.5895 45.4523 43.7073 45.4523 41.3938C45.4523 39.0804 43.5708 37.1982 41.258 37.1982C38.9446 37.1982 37.0625 39.0803 37.0625 41.3938C37.0625 43.7073 38.9445 45.5895 41.258 45.5895Z" fill="white"/>
<rect x="0.5" y="0.5" width="101" height="101" rx="32.5" stroke="#B5FCA4"/>
<rect x="9" y="9" width="84" height="84" rx="23" fill="#B5FCA4"/>
<path d="M60.1357 45.5895C62.4491 45.5895 64.3312 43.7073 64.3312 41.3938C64.3312 39.0804 62.4492 37.1982 60.1357 37.1982C57.8229 37.1982 55.9414 39.0803 55.9414 41.3938C55.9414 43.7073 57.823 45.5895 60.1357 45.5895Z" fill="white"/>
<path d="M69.2822 53.1825L67.8413 51.2178C67.5124 50.7694 66.9653 50.0555 66.6215 49.6264L64.4952 46.97C64.1869 46.5847 63.8671 46.3104 63.2534 46.3104C63.2462 46.3104 58.2272 46.3039 58.2272 46.3039L54.9638 44.0859C54.6009 43.8392 54.0016 43.3585 53.6814 43.0572L53.3072 42.705H53.9817C54.1005 42.705 54.2061 42.6558 54.2713 42.5699C54.3366 42.4841 54.3557 42.3692 54.324 42.2547L53.8803 40.6584C53.8206 40.4435 53.599 40.2752 53.376 40.2752H52.2333L51.9481 38.5464L53.4517 37.5439C53.8127 37.3033 54.1213 36.8744 54.2923 36.421C55.5196 36.312 56.4853 35.2788 56.4853 34.0236C56.4853 32.3261 56.0157 31.6178 54.8692 31.5952L55.1477 30.5069C55.1805 30.3789 55.156 30.2497 55.0807 30.1527C55.0053 30.0557 54.8863 30 54.7541 30H46.9363C46.8042 30 46.6851 30.0557 46.6098 30.1527C46.5344 30.2497 46.51 30.3789 46.5428 30.507L46.8215 31.5952C45.6704 31.6154 45.1992 32.3231 45.1992 34.0238C45.1992 35.2791 46.165 36.3124 47.3924 36.4212C47.5633 36.8745 47.8721 37.3035 48.2329 37.544L49.7422 38.5502L49.4577 40.2752H48.4773C48.2542 40.2752 48.0328 40.4435 47.9731 40.6584L47.5294 42.2548C47.4977 42.3692 47.5169 42.4841 47.5821 42.57C47.6473 42.6558 47.7529 42.705 47.8717 42.705H48.3773L48.0032 43.0572C47.6831 43.3583 47.0839 43.839 46.7209 44.0859L43.4573 46.3039C43.4573 46.3039 38.5243 46.3073 38.5182 46.3073C37.8857 46.3073 37.4699 46.55 37.1312 46.9732L35.0048 49.6295C34.6609 50.0591 34.1136 50.773 33.785 51.2211L32.3441 53.1858C32.0636 53.5683 31.9489 54.0371 32.021 54.5058C32.0932 54.9746 32.3434 55.3872 32.7258 55.6676C33.0326 55.8925 33.3952 56.0114 33.7745 56.0114C34.3386 56.0114 34.8743 55.7401 35.2075 55.2858L36.499 53.5247L36.2159 56.6885L33.7238 68.5243C33.6208 69.0135 33.7144 69.5137 33.9876 69.9324C34.2607 70.3513 34.6807 70.6387 35.1697 70.7416C35.2972 70.7686 35.4276 70.7822 35.5573 70.7822C36.4364 70.7822 37.206 70.157 37.3873 69.2956L39.7196 58.2192H40.327L40.6601 61.9579C40.7001 62.4069 40.7202 63.1961 40.7032 63.6469L40.5069 68.8392C40.4881 69.3388 40.6648 69.8159 41.0048 70.1826C41.3448 70.5493 41.8072 70.7616 42.3071 70.7805C42.331 70.7814 42.3549 70.782 42.3786 70.782C43.3888 70.782 44.2099 69.9907 44.2481 68.9807L44.4444 63.7887C44.4674 63.1815 44.4432 62.2314 44.3892 61.6257L43.891 56.0353C43.8897 56.02 43.8866 56.0054 43.8849 55.9902L44.4266 49.9384L48.7171 47.0226C49.2295 46.6743 49.985 46.0684 50.437 45.6431L50.8424 45.2614L51.2477 45.6429C51.6993 46.068 52.4548 46.6741 52.9678 47.0227L56.9483 49.728L57.5088 55.9902C57.5071 56.0053 57.5039 56.02 57.5026 56.0353L57.0045 61.6255C56.9506 62.2303 56.9257 63.1794 56.948 63.7862L57.1455 69.1964C57.1823 70.2078 58.0036 71 59.015 71C59.0381 71 59.0614 70.9996 59.0843 70.9987C59.5841 70.9805 60.0467 70.7688 60.3872 70.4026C60.7276 70.0364 60.905 69.5595 60.8867 69.0599L60.6891 63.6496C60.6727 63.1979 60.6934 62.4075 60.7335 61.9579L61.0666 58.2192H61.6741L62.5617 62.4341C62.6748 62.9711 62.871 63.8398 62.9992 64.3707L64.2011 69.3492C64.4048 70.1929 65.1525 70.7822 66.0194 70.7822C66.1674 70.7822 66.3157 70.7645 66.46 70.7295C67.4633 70.4874 68.0825 69.474 67.8403 68.4706L66.6385 63.4921C66.517 62.9887 66.3316 62.1681 66.2251 61.6626L65.1774 56.6876L64.8618 53.1606C64.9032 53.2161 64.9422 53.2689 64.978 53.3176L66.4188 55.2824C66.7521 55.7366 67.2878 56.0079 67.8518 56.0079C68.2312 56.0079 68.5937 55.889 68.9004 55.6641C69.2829 55.3837 69.5332 54.9711 69.6053 54.5024C69.6774 54.0337 69.5627 53.5649 69.2822 53.1825ZM54.5504 32.5894C54.5629 32.5754 54.5748 32.5608 54.5859 32.5455C54.6651 32.5423 54.7414 32.5396 54.8122 32.5396C55.2188 32.5396 55.54 32.5396 55.54 34.0237C55.54 34.6646 55.1254 35.2105 54.5504 35.4074V32.5894ZM47.1342 35.4075C46.5591 35.2105 46.1446 34.6647 46.1446 34.0238C46.1446 32.5397 46.4657 32.5397 46.8722 32.5397C46.9449 32.5397 47.0234 32.5425 47.1051 32.5459C47.1141 32.5583 47.124 32.5701 47.1341 32.5817V35.4075H47.1342ZM49.6938 35.5558C49.6589 35.5077 49.6259 35.4243 49.6665 35.2994L49.9648 34.3815C49.9631 34.3858 49.961 34.3788 49.9591 34.3762L49.1839 33.814C49.0239 33.6977 49.0537 33.5591 49.0666 33.5193C49.0795 33.4796 49.137 33.3499 49.3347 33.3499H50.2999C50.2954 33.3496 50.3013 33.3453 50.3033 33.3426L50.5984 32.4319C50.6597 32.2439 50.8007 32.2292 50.8425 32.2292C50.8843 32.2292 51.0254 32.2439 51.0865 32.4317L51.3848 33.3497C51.3836 33.3453 51.3895 33.3495 51.3927 33.3507L52.3501 33.3499C52.5478 33.3499 52.6053 33.4796 52.6183 33.5193C52.6312 33.559 52.6609 33.6977 52.5011 33.814L51.7203 34.3814C51.7235 34.3785 51.7216 34.3858 51.7217 34.3891L52.0183 35.2996C52.0588 35.4243 52.0258 35.5078 51.9909 35.5559C51.947 35.6164 51.8783 35.6512 51.8024 35.6512C51.7428 35.6512 51.6825 35.6294 51.6234 35.5865L50.8426 35.0191L50.0615 35.5865C49.9271 35.6839 49.7722 35.6639 49.6938 35.5558Z" fill="white"/>
<path d="M41.258 45.5895C43.5707 45.5895 45.4523 43.7073 45.4523 41.3938C45.4523 39.0804 43.5708 37.1982 41.258 37.1982C38.9446 37.1982 37.0625 39.0803 37.0625 41.3938C37.0625 43.7073 38.9445 45.5895 41.258 45.5895Z" fill="white"/>
</svg>
