<svg width="102" height="102" viewBox="0 0 102 102" fill="none" xmlns="http://www.w3.org/2000/svg">
<rect x="0.5" y="0.5" width="101" height="101" rx="32.5" stroke="#F4F67E"/>
<rect x="9" y="9" width="84" height="84" rx="23" fill="#F4F77E"/>
<path d="M62.0471 33.4256C58.8533 30.3777 54.652 28.8125 50.2384 29.0179C41.9489 29.4034 35.1135 36.4746 35.0014 44.7807C34.9398 49.4475 36.9132 53.8973 40.4159 56.9892C40.7923 57.3216 41.0862 57.7283 41.2863 58.1767H49.5886V52.7742C49.0162 52.3014 48.4626 51.8497 47.9416 51.4272C44.0519 48.2737 42.0316 46.5086 42.0316 43.7743C42.0316 41.0748 44.0013 38.96 46.5159 38.96C47.8798 38.96 48.9828 39.5225 49.8881 40.6801L51.0002 42.1029L52.1124 40.6801C53.0176 39.5225 54.1206 38.96 55.4846 38.96C57.9993 38.96 59.9688 41.0749 59.9688 43.7743C59.9688 46.5087 57.9486 48.2738 54.0773 51.4125C53.5453 51.8437 52.9868 52.2992 52.4119 52.7741V58.1766H60.7082C60.9035 57.7339 61.1901 57.3359 61.5561 57.0144C65.0157 53.9753 67 49.5962 67 45.0002C67.0003 40.5854 65.2411 36.4746 62.0471 33.4256Z" fill="white"/>
<path d="M41.5879 61V62.4117C41.5879 64.2655 42.7925 65.8276 44.4542 66.4002C44.6034 67.7909 45.1861 69.113 46.1393 70.1539C47.3847 71.5137 49.1558 72.2941 50.9997 72.2941C52.8434 72.2941 54.6145 71.5137 55.8599 70.1539C56.8131 69.1132 57.3957 67.791 57.545 66.4003C59.2068 65.8277 60.4113 64.2656 60.4113 62.4118V61.0001H41.5879V61Z" fill="white"/>
</svg>
