<svg width="24" height="24" viewBox="0 0 24 24" fill="none" xmlns="http://www.w3.org/2000/svg">
<path d="M10.0644 10.2856H9.44727V11.5689H10.0644C10.4171 11.5689 10.706 11.2799 10.706 10.9273C10.706 10.5746 10.4171 10.2856 10.0644 10.2856Z" fill="#0C4CA3"/>
<path d="M20.4784 8.47837V3.52163H15.5216L12 0L8.47837 3.52163H3.52163V8.49306L0 12L3.52163 15.5216V20.4931H8.49306L12 24L15.5216 20.4784H20.4931V15.5216L24 12L20.4784 8.47837ZM7.26857 11.569C7.50367 11.569 7.69959 11.76 7.69959 12C7.69959 12.24 7.50857 12.431 7.26857 12.431H6.0049V14.1453C6.0049 14.3804 5.81388 14.5763 5.57388 14.5763C5.33388 14.5763 5.14286 14.3853 5.14286 14.1453V9.86449C5.14286 9.62939 5.33388 9.43347 5.57388 9.43347H7.26367C7.49878 9.43347 7.69469 9.62449 7.69469 9.86449C7.69469 10.0996 7.50367 10.2955 7.26367 10.2955H6V11.5788H7.26857V11.569ZM11.329 14.4735C11.2065 14.5273 10.8882 14.5371 10.751 14.2824L9.81061 12.4261H9.44326V14.1404C9.44326 14.3755 9.25224 14.5714 9.01225 14.5714C8.77714 14.5714 8.58122 14.3804 8.58122 14.1404V9.85959C8.58122 9.62449 8.77224 9.42857 9.01225 9.42857H10.0604C10.8882 9.42857 11.5592 10.0996 11.5592 10.9273C11.5592 11.5249 11.2065 12.0441 10.6971 12.2841L11.5151 13.8955C11.6229 14.1061 11.5445 14.3706 11.329 14.4735ZM14.8065 11.569C15.0416 11.569 15.2376 11.76 15.2376 12C15.2376 12.24 15.0465 12.431 14.8065 12.431H13.5429V13.7143H14.8065C15.0416 13.7143 15.2376 13.9053 15.2376 14.1453C15.2376 14.3804 15.0465 14.5763 14.8065 14.5763H13.1167C12.8816 14.5763 12.6857 14.3853 12.6857 14.1453V9.86449C12.6857 9.62939 12.8767 9.43347 13.1167 9.43347H14.8065C15.0416 9.43347 15.2376 9.62449 15.2376 9.86449C15.2376 10.0996 15.0465 10.2955 14.8065 10.2955H13.5429V11.5788H14.8065V11.569ZM18.4212 11.569C18.6563 11.569 18.8522 11.76 18.8522 12C18.8522 12.24 18.6612 12.431 18.4212 12.431H17.1576V13.7143H18.4212C18.6563 13.7143 18.8522 13.9053 18.8522 14.1453C18.8522 14.3804 18.6612 14.5763 18.4212 14.5763H16.7314C16.4963 14.5763 16.3004 14.3853 16.3004 14.1453V9.86449C16.3004 9.62939 16.4914 9.43347 16.7314 9.43347H18.4212C18.6563 9.43347 18.8522 9.62449 18.8522 9.86449C18.8522 10.0996 18.6612 10.2955 18.4212 10.2955H17.1576V11.5788H18.4212V11.569Z" fill="#0C4CA3"/>
</svg>
