<svg width="20" height="20" viewBox="0 0 20 20" fill="none" xmlns="http://www.w3.org/2000/svg">
<path d="M8.68694 18.5947L8.68869 18.5933H8.68555L8.68694 18.5947Z" fill="#0C4CA3"/>
<path d="M8.30145 11.2086H8.28064L7.48453 10.2961C7.86933 10.4342 8.27029 10.5177 8.68613 10.5177C9.10243 10.5177 9.5027 10.4356 9.8868 10.2968L9.09069 11.2086H9.07128L11.0219 15.9259L12.8043 13.5589L14.7807 15.0454L16.021 13.1822C14.8494 11.6957 13.004 10.3691 10.8294 9.81809C12.4009 8.76053 13.4839 6.67541 13.4839 4.79814C13.4838 2.14814 11.3347 0 8.68613 0C6.03752 0 3.88915 2.14814 3.88915 4.79802C3.88915 6.67529 4.97113 8.76042 6.54299 9.81798C2.78521 10.7711 0 14.0331 0 16.4513C0 17.8798 4.34219 18.5934 8.68473 18.5919L6.25282 16.161L8.30145 11.2086Z" fill="#0C4CA3"/>
<path d="M8.6875 18.5931C9.95746 18.5916 11.2274 18.5323 12.3876 18.4091L10.38 16.8999L8.6875 18.5931Z" fill="#0C4CA3"/>
<path d="M17.6963 12.6284L15.0481 16.606L13.0201 15.0807L11.8457 16.6401L15.5296 19.41L19.3209 13.7107L17.6963 12.6284Z" fill="#0C4CA3"/>
</svg>
