<svg width="110" height="110" viewBox="0 0 110 110" fill="none" xmlns="http://www.w3.org/2000/svg">
<g filter="url(#filter0_d_101_15785)">
<rect x="4.5" y="0.5" width="101" height="101" rx="32.5" stroke="#A2E2F8"/>
<rect x="13" y="9" width="84" height="84" rx="23" fill="#A2E2F8"/>
<path d="M69.4509 36.0492L61.9508 28.549C61.9505 28.5487 61.9501 28.5485 61.9499 28.5481C61.9064 28.5048 61.8609 28.4638 61.8135 28.4248C61.7917 28.407 61.7689 28.3915 61.7466 28.3748C61.7199 28.3549 61.6938 28.3342 61.6661 28.3157C61.6393 28.2978 61.6117 28.2824 61.5842 28.266C61.5591 28.251 61.5346 28.2352 61.5087 28.2214C61.4808 28.2064 61.4521 28.1938 61.4236 28.1803C61.3966 28.1676 61.37 28.1541 61.3424 28.1426C61.3148 28.1312 61.2865 28.1219 61.2583 28.1118C61.2287 28.1012 61.1995 28.0899 61.1693 28.0807C61.1412 28.0722 61.1125 28.066 61.0841 28.0588C61.0533 28.051 61.0228 28.0424 60.9914 28.0362C60.9584 28.0297 60.9252 28.0257 60.8921 28.021C60.8648 28.0171 60.8379 28.0118 60.8101 28.0091C60.687 27.997 60.563 27.997 60.44 28.0091C60.4123 28.0118 60.3854 28.017 60.358 28.021C60.3248 28.0257 60.2915 28.0296 60.2587 28.0362C60.2272 28.0424 60.1968 28.051 60.1659 28.0588C60.1375 28.066 60.1089 28.0722 60.0808 28.0807C60.0505 28.0899 60.0213 28.1012 59.9917 28.1118C59.9636 28.1219 59.9353 28.1312 59.9076 28.1426C59.8799 28.154 59.8535 28.1676 59.8265 28.1803C59.798 28.1938 59.7693 28.2064 59.7413 28.2214C59.7155 28.2352 59.691 28.251 59.6658 28.266C59.6384 28.2824 59.6107 28.2978 59.584 28.3157C59.5562 28.3342 59.5302 28.3549 59.5035 28.3748C59.4812 28.3915 59.4583 28.407 59.4366 28.4248C59.3891 28.4638 59.3435 28.5048 59.3002 28.5481C59.2998 28.5485 59.2995 28.5487 59.2992 28.549L51.7992 36.0491C51.0669 36.7813 51.0669 37.9685 51.7992 38.7008C52.5314 39.433 53.7186 39.433 54.4509 38.7008L58.7501 34.4015V56.1252C58.7501 57.1607 59.5895 58.0002 60.6251 58.0002C61.6606 58.0002 62.5001 57.1607 62.5001 56.1252V34.4016L66.7993 38.7009C67.5315 39.4331 68.7188 39.4331 69.451 38.7009C70.1831 37.9685 70.1831 36.7814 69.4509 36.0492Z" fill="white"/>
<path d="M55.5493 62.2998L51.2501 66.599V44.8755C51.2501 43.8399 50.4106 43.0005 49.3751 43.0005C48.3395 43.0005 47.5001 43.8399 47.5001 44.8755V66.599L43.2009 62.2998C42.4686 61.5676 41.2814 61.5676 40.5492 62.2998C39.8169 63.0321 39.8169 64.2193 40.5492 64.9515L48.0492 72.4516C48.0496 72.4519 48.0499 72.4522 48.0503 72.4525C48.0936 72.4958 48.1392 72.5368 48.1866 72.5758C48.2083 72.5936 48.2313 72.6091 48.2536 72.6259C48.2802 72.6458 48.3063 72.6665 48.334 72.685C48.3607 72.7029 48.3884 72.7183 48.4158 72.7347C48.441 72.7497 48.4655 72.7654 48.4913 72.7792C48.5193 72.7942 48.548 72.8068 48.5766 72.8203C48.6035 72.833 48.63 72.8465 48.6576 72.8579C48.6853 72.8693 48.7136 72.8786 48.7417 72.8887C48.7713 72.8993 48.8005 72.9106 48.8308 72.9198C48.8589 72.9283 48.8875 72.9345 48.9159 72.9417C48.9468 72.9495 48.9773 72.9581 49.0087 72.9643C49.0417 72.9708 49.0749 72.9747 49.1081 72.9795C49.1354 72.9833 49.1624 72.9886 49.1901 72.9913C49.3131 73.0034 49.4371 73.0034 49.5602 72.9913C49.5879 72.9886 49.6148 72.9834 49.6422 72.9795C49.6753 72.9747 49.7086 72.9708 49.7415 72.9642C49.773 72.958 49.8034 72.9494 49.8342 72.9416C49.8627 72.9345 49.8913 72.9282 49.9194 72.9197C49.9496 72.9105 49.9789 72.8992 50.0084 72.8886C50.0365 72.8785 50.0648 72.8692 50.0925 72.8578C50.1201 72.8464 50.1466 72.8329 50.1735 72.8202C50.202 72.8067 50.2309 72.7941 50.2588 72.7791C50.2846 72.7653 50.3091 72.7495 50.3341 72.7346C50.3616 72.7182 50.3893 72.7027 50.4161 72.6848C50.4437 72.6663 50.4698 72.6457 50.4963 72.6259C50.5187 72.6091 50.5417 72.5935 50.5635 72.5757C50.6105 72.5371 50.6557 72.4963 50.6988 72.4533C50.6995 72.4527 50.7002 72.4521 50.7008 72.4515L58.2009 64.9514C58.9331 64.2192 58.9331 63.032 58.2009 62.2997C57.4687 61.5675 56.2816 61.5676 55.5493 62.2998Z" fill="white"/>
<rect x="4.5" y="0.5" width="101" height="101" rx="32.5" stroke="#A2E2F8"/>
<rect x="13" y="9" width="84" height="84" rx="23" fill="#A2E2F8"/>
<path d="M69.4509 36.0492L61.9508 28.549C61.9505 28.5487 61.9501 28.5485 61.9499 28.5481C61.9064 28.5048 61.8609 28.4638 61.8135 28.4248C61.7917 28.407 61.7689 28.3915 61.7466 28.3748C61.7199 28.3549 61.6938 28.3342 61.6661 28.3157C61.6393 28.2978 61.6117 28.2824 61.5842 28.266C61.5591 28.251 61.5346 28.2352 61.5087 28.2214C61.4808 28.2064 61.4521 28.1938 61.4236 28.1803C61.3966 28.1676 61.37 28.1541 61.3424 28.1426C61.3148 28.1312 61.2865 28.1219 61.2583 28.1118C61.2287 28.1012 61.1995 28.0899 61.1693 28.0807C61.1412 28.0722 61.1125 28.066 61.0841 28.0588C61.0533 28.051 61.0228 28.0424 60.9914 28.0362C60.9584 28.0297 60.9252 28.0257 60.8921 28.021C60.8648 28.0171 60.8379 28.0118 60.8101 28.0091C60.687 27.997 60.563 27.997 60.44 28.0091C60.4123 28.0118 60.3854 28.017 60.358 28.021C60.3248 28.0257 60.2915 28.0296 60.2587 28.0362C60.2272 28.0424 60.1968 28.051 60.1659 28.0588C60.1375 28.066 60.1089 28.0722 60.0808 28.0807C60.0505 28.0899 60.0213 28.1012 59.9917 28.1118C59.9636 28.1219 59.9353 28.1312 59.9076 28.1426C59.8799 28.154 59.8535 28.1676 59.8265 28.1803C59.798 28.1938 59.7693 28.2064 59.7413 28.2214C59.7155 28.2352 59.691 28.251 59.6658 28.266C59.6384 28.2824 59.6107 28.2978 59.584 28.3157C59.5562 28.3342 59.5302 28.3549 59.5035 28.3748C59.4812 28.3915 59.4583 28.407 59.4366 28.4248C59.3891 28.4638 59.3435 28.5048 59.3002 28.5481C59.2998 28.5485 59.2995 28.5487 59.2992 28.549L51.7992 36.0491C51.0669 36.7813 51.0669 37.9685 51.7992 38.7008C52.5314 39.433 53.7186 39.433 54.4509 38.7008L58.7501 34.4015V56.1252C58.7501 57.1607 59.5895 58.0002 60.6251 58.0002C61.6606 58.0002 62.5001 57.1607 62.5001 56.1252V34.4016L66.7993 38.7009C67.5315 39.4331 68.7188 39.4331 69.451 38.7009C70.1831 37.9685 70.1831 36.7814 69.4509 36.0492Z" fill="white"/>
<path d="M55.5493 62.2998L51.2501 66.599V44.8755C51.2501 43.8399 50.4106 43.0005 49.3751 43.0005C48.3395 43.0005 47.5001 43.8399 47.5001 44.8755V66.599L43.2009 62.2998C42.4686 61.5676 41.2814 61.5676 40.5492 62.2998C39.8169 63.0321 39.8169 64.2193 40.5492 64.9515L48.0492 72.4516C48.0496 72.4519 48.0499 72.4522 48.0503 72.4525C48.0936 72.4958 48.1392 72.5368 48.1866 72.5758C48.2083 72.5936 48.2313 72.6091 48.2536 72.6259C48.2802 72.6458 48.3063 72.6665 48.334 72.685C48.3607 72.7029 48.3884 72.7183 48.4158 72.7347C48.441 72.7497 48.4655 72.7654 48.4913 72.7792C48.5193 72.7942 48.548 72.8068 48.5766 72.8203C48.6035 72.833 48.63 72.8465 48.6576 72.8579C48.6853 72.8693 48.7136 72.8786 48.7417 72.8887C48.7713 72.8993 48.8005 72.9106 48.8308 72.9198C48.8589 72.9283 48.8875 72.9345 48.9159 72.9417C48.9468 72.9495 48.9773 72.9581 49.0087 72.9643C49.0417 72.9708 49.0749 72.9747 49.1081 72.9795C49.1354 72.9833 49.1624 72.9886 49.1901 72.9913C49.3131 73.0034 49.4371 73.0034 49.5602 72.9913C49.5879 72.9886 49.6148 72.9834 49.6422 72.9795C49.6753 72.9747 49.7086 72.9708 49.7415 72.9642C49.773 72.958 49.8034 72.9494 49.8342 72.9416C49.8627 72.9345 49.8913 72.9282 49.9194 72.9197C49.9496 72.9105 49.9789 72.8992 50.0084 72.8886C50.0365 72.8785 50.0648 72.8692 50.0925 72.8578C50.1201 72.8464 50.1466 72.8329 50.1735 72.8202C50.202 72.8067 50.2309 72.7941 50.2588 72.7791C50.2846 72.7653 50.3091 72.7495 50.3341 72.7346C50.3616 72.7182 50.3893 72.7027 50.4161 72.6848C50.4437 72.6663 50.4698 72.6457 50.4963 72.6259C50.5187 72.6091 50.5417 72.5935 50.5635 72.5757C50.6105 72.5371 50.6557 72.4963 50.6988 72.4533C50.6995 72.4527 50.7002 72.4521 50.7008 72.4515L58.2009 64.9514C58.9331 64.2192 58.9331 63.032 58.2009 62.2997C57.4687 61.5675 56.2816 61.5676 55.5493 62.2998Z" fill="white"/>
</g>
<defs>
<filter id="filter0_d_101_15785" x="0" y="0" width="110" height="110" filterUnits="userSpaceOnUse" color-interpolation-filters="sRGB">
<feFlood flood-opacity="0" result="BackgroundImageFix"/>
<feColorMatrix in="SourceAlpha" type="matrix" values="0 0 0 0 0 0 0 0 0 0 0 0 0 0 0 0 0 0 127 0" result="hardAlpha"/>
<feOffset dy="4"/>
<feGaussianBlur stdDeviation="2"/>
<feComposite in2="hardAlpha" operator="out"/>
<feColorMatrix type="matrix" values="0 0 0 0 0 0 0 0 0 0 0 0 0 0 0 0 0 0 0.25 0"/>
<feBlend mode="normal" in2="BackgroundImageFix" result="effect1_dropShadow_101_15785"/>
<feBlend mode="normal" in="SourceGraphic" in2="effect1_dropShadow_101_15785" result="shape"/>
</filter>
</defs>
</svg>
