<svg width="54" height="43" viewBox="0 0 54 43" fill="none" xmlns="http://www.w3.org/2000/svg">
<g id="Group">
<path id="Vector" d="M19.3869 9.16995C21.8993 9.16995 23.951 7.11823 23.951 4.60591C23.951 2.05172 21.8993 0 19.3869 0C16.8327 0 14.781 2.05172 14.8229 4.60591C14.8229 7.11823 16.8746 9.16995 19.3869 9.16995Z" fill="white"/>
<path id="Vector_2" d="M34.1265 9.16995C36.6389 9.16995 38.6906 7.11823 38.6906 4.60591C38.7325 2.05172 36.6807 0 34.1265 0C31.6142 0 29.5625 2.05172 29.5625 4.60591C29.5625 7.11823 31.6142 9.16995 34.1265 9.16995Z" fill="white"/>
<path id="Vector_3" d="M50.8744 37.1824H42.4581V31.1529H42.3744C42.8768 31.1529 43.2956 31.0272 43.798 30.9016C45.5985 30.2317 46.6872 28.4312 46.5197 26.6307C46.6453 25.1233 46.6453 23.8671 46.6453 21.941C46.6453 15.6184 44.7611 9.54694 40.9089 8.24891C40.7833 8.20704 40.5739 8.16517 40.4901 8.12329C40.3645 8.08142 40.0296 8.03955 39.9039 8.03955C38.9828 8.03955 38.1872 8.37453 37.8103 9.08635L32.5764 18.0051H20.936L15.702 9.12822C15.3251 8.4164 14.5296 8.08142 13.6084 8.08142C13.4828 8.08142 13.1897 8.12329 13.0222 8.16516C12.8966 8.20704 12.7291 8.24891 12.6034 8.29078C8.75123 9.54694 6.86699 15.6602 6.86699 21.9829C6.82512 23.909 6.867 25.1233 6.99261 26.6726C6.867 28.473 7.91379 30.2735 9.71429 30.9435C10.2167 31.0691 10.6355 31.1947 11.1379 31.1947H11.0542V37.2243H2.63793C1.13054 37.2243 0 38.3967 0 39.8622C0 41.3696 1.17241 42.5001 2.63793 42.5001H13.6921C14.3621 42.5001 15.0739 42.2489 15.4926 41.7046C16.0369 41.1184 16.33 40.4484 16.33 39.8203V20.5593L12.3522 13.776C12.2266 13.5248 12.3103 13.1479 12.5197 12.9804C12.7709 12.8548 13.1478 12.9386 13.3153 13.1479L17.8793 21.0617C18.2143 21.6479 18.8424 22.0666 19.5961 22.0666H33.9163C34.67 22.0666 35.298 21.6898 35.633 21.0617L40.197 13.1061C40.3227 12.8967 40.7414 12.7711 40.9926 12.9386C41.202 13.0642 41.3276 13.4829 41.1601 13.7341L37.1823 20.5174V39.7785C37.1823 40.4065 37.5172 41.0765 38.0197 41.6627C38.4384 42.207 39.1502 42.4583 39.8202 42.4583H50.8744C52.3399 42.4583 53.5123 41.3277 53.5123 39.8203C53.5123 38.3548 52.3818 37.1824 50.8744 37.1824Z" fill="white"/>
</g>
</svg>
