<svg width="34" height="35" viewBox="0 0 34 35" fill="none" xmlns="http://www.w3.org/2000/svg">
<path d="M25.8643 0.767674C36.3013 2.1112 33.2381 17.2349 32.9478 24.5656C32.7864 28.5964 32.0665 31.7135 27.9067 33.1108C22.4355 34.9489 14.3739 34.3361 8.79529 33.5193C5.06536 32.9818 2.14169 31.8639 1.10983 27.9944C-0.524019 21.8783 -0.0617938 13.6016 0.647608 7.36734C0.669183 7.24914 0.701311 7.16308 0.755015 7.0878C0.851634 -2.24183 20.436 0.0690597 25.8643 0.767674Z" fill="#91E7DE"/>
<path d="M30.1969 6.45407C30.2185 3.88498 27.0153 3.06817 25.2953 4.64832C24.8331 5.07818 24.6181 5.73388 24.5859 6.44328C24.7578 7.35695 25.3061 8.25982 26.0155 8.77575C27.6817 9.94737 30.1753 8.3888 30.1969 6.45407Z" fill="white" fill-opacity="0.44"/>
<path d="M25.4347 11.452C21.7587 5.88416 13.4605 5.33587 8.99979 10.2696C5.95792 13.6339 5.74288 19.234 8.03243 23.2111C8.16141 23.2541 8.2796 23.3293 8.38724 23.4583C12.1064 27.6073 18.5126 29.1122 23.1132 25.3501C27.2191 21.9858 28.4229 15.9771 25.4347 11.452Z" fill="white" fill-opacity="0.44"/>
<path d="M10.7836 19.0839C12.0842 22.7386 16.7062 25.6407 20.393 23.3835C27.8418 18.8259 19.0924 6.44343 12.9547 11.936C10.7836 13.215 9.93439 16.6867 10.7836 19.0839Z" fill="#91E7DE"/>
</svg>
